<?xml version="1.0" encoding="UTF-8"?>
<svg width="45px" height="40px" viewBox="0 0 45 40" version="1.1" xmlns="http://www.w3.org/2000/svg" xmlns:xlink="http://www.w3.org/1999/xlink">
    <!-- Generator: Sketch 55.2 (78181) - https://sketchapp.com -->
    <desc>Created with Sketch.</desc>
    <defs>
        <linearGradient x1="0.172021763%" y1="57.9957836%" x2="95.8895034%" y2="65.2734686%" id="linearGradient-1">
            <stop stop-color="#0681D0" offset="0.0897381757%"></stop>
            <stop stop-color="#15A0DD" offset="100%"></stop>
        </linearGradient>
        <linearGradient x1="39.1052513%" y1="0%" x2="63.3073778%" y2="95.2954828%" id="linearGradient-2">
            <stop stop-color="#069D6F" offset="0%"></stop>
            <stop stop-color="#0AACB1" offset="100%"></stop>
        </linearGradient>
        <linearGradient x1="0%" y1="55.7522204%" x2="82.9816817%" y2="58.1042829%" id="linearGradient-3">
            <stop stop-color="#9AC631" offset="0%"></stop>
            <stop stop-color="#69BE1F" offset="100%"></stop>
        </linearGradient>
        <linearGradient x1="4.32572933%" y1="75.4036263%" x2="85.2335888%" y2="30.9740552%" id="linearGradient-4">
            <stop stop-color="#43AF40" offset="0%"></stop>
            <stop stop-color="#03AA2D" offset="100%"></stop>
        </linearGradient>
        <linearGradient x1="33.4574853%" y1="100%" x2="62.2113732%" y2="5.06645822%" id="linearGradient-5">
            <stop stop-color="#33B333" offset="0%"></stop>
            <stop stop-color="#00912C" offset="100%"></stop>
        </linearGradient>
        <linearGradient x1="100%" y1="39.072913%" x2="0%" y2="60.7695109%" id="linearGradient-6">
            <stop stop-color="#148A3C" offset="0%"></stop>
            <stop stop-color="#5CBC4D" offset="100%"></stop>
        </linearGradient>
        <linearGradient x1="50%" y1="0%" x2="50%" y2="100%" id="linearGradient-7">
            <stop stop-color="#02882F" offset="0%"></stop>
            <stop stop-color="#51C53B" offset="100%"></stop>
        </linearGradient>
        <linearGradient x1="50%" y1="0%" x2="50%" y2="100%" id="linearGradient-8">
            <stop stop-color="#CF002E" offset="0%"></stop>
            <stop stop-color="#D90324" offset="100%"></stop>
        </linearGradient>
        <linearGradient x1="50%" y1="0%" x2="50%" y2="100%" id="linearGradient-9">
            <stop stop-color="#C51F20" offset="0%"></stop>
            <stop stop-color="#E49420" offset="100%"></stop>
        </linearGradient>
        <linearGradient x1="50%" y1="0%" x2="50%" y2="100%" id="linearGradient-10">
            <stop stop-color="#C70719" offset="0%"></stop>
            <stop stop-color="#DD231E" offset="100%"></stop>
        </linearGradient>
        <linearGradient x1="31.8096598%" y1="23.9004859%" x2="100%" y2="83.4720148%" id="linearGradient-11">
            <stop stop-color="#E8711E" offset="0%"></stop>
            <stop stop-color="#E2AF22" offset="100%"></stop>
        </linearGradient>
    </defs>
    <g id="页面1" stroke="none" stroke-width="1" fill="none" fill-rule="evenodd">
        <g id="画板" transform="translate(-138.000000, -68.000000)" fill-rule="nonzero" stroke="#FFFFFF">
            <g id="编组" transform="translate(141.000000, 69.000000)">
                <g id="市标">
                    <path d="M19.7770241,11.271641 C19.8569296,11.3058719 19.9368209,11.3407622 20.0166984,11.3763108 C20.0305468,11.3828029 20.04036,11.3868757 20.0817609,11.4033384 C20.1210885,11.418756 20.1210885,11.418756 20.1706954,11.439193 C20.4632184,11.56302 20.6695358,11.7490939 20.8047143,12.0824098 L21.1100578,12.8353095 L20.3003373,12.7686361 C20.2040976,12.7607116 20.1400667,12.7552402 19.9838129,12.7416595 C19.0808704,12.6628116 18.8897692,12.6483836 18.5055325,12.6386019 C18.4242555,12.6365328 18.3449198,12.6354839 18.2635706,12.6354724 C14.9130733,12.6127306 11.6283452,13.4169628 8.24140076,15.003044 C8.17060394,15.0362333 8.11225593,15.065052 7.97903509,15.1319664 C7.83770236,15.2029552 7.77402655,15.2344053 7.6980121,15.2699963 C6.68294206,15.7616384 6.15466122,15.4494669 6.10219127,14.3071534 C6.03538299,13.0487817 6.05361643,12.2663992 6.22042077,11.4398217 C6.48522411,10.0717614 7.01453666,8.80650506 7.80639913,7.61983742 C8.6357427,6.35625972 9.79491017,5.77755981 11.2963674,5.87532175 C14.3471617,6.08061374 16.5946088,6.93372685 18.329724,8.81808697 C18.8707427,9.40564113 19.272951,9.98329743 19.5766679,10.6545235 L19.851092,11.2610116 L19.7770241,11.271641 Z" id="路径" fill="url(#linearGradient-1)"></path>
                    <path d="M21.9003602,9.8924013 C21.9849601,10.0622134 22.0120001,10.2620005 21.9684732,10.5068631 L21.8550154,11.1451262 L21.2665065,10.873263 C19.3542487,9.98989076 17.9770437,8.86166917 17.0777463,7.31123713 C15.7498178,5.01844479 15.3965788,2.76030266 16.1572885,0.455436207 C16.4324989,-0.37396276 17.0036367,-0.622754436 17.8371896,-0.380829652 C22.1279876,0.907027317 24.0755232,5.05894714 22.3458147,9.21297219 C22.3428631,9.22068121 22.3412069,9.22577315 22.3307077,9.26000845 C22.3217706,9.29010711 22.3217706,9.29010711 22.3103059,9.32802694 C22.2276573,9.59663959 22.1071766,9.80193841 21.9003602,9.8924013 Z" id="路径" fill="url(#linearGradient-2)"></path>
                    <path d="M25.9744213,12.6745657 L26.0174854,12.1554388 C26.0476124,11.792264 26.2102295,11.5652772 26.484007,11.3648026 C26.5292501,11.3321968 26.5292501,11.3321968 26.5623597,11.3085545 C26.5725908,11.3011116 26.5725908,11.3011116 26.5756321,11.2989297 C28.0444049,10.1610632 29.7245404,9.39213988 31.6050513,8.9752373 C32.6949899,8.73192344 33.1562206,9.11983214 33.1042689,10.2331659 C33.0435299,11.5999279 32.5563112,12.8535311 31.6605255,14.1742421 C31.4193489,14.5203523 31.0814187,14.7302892 30.6560993,14.8193005 C28.1685866,15.3341418 25.755047,14.9413191 23.4703609,13.7134381 C23.0278568,13.5315876 22.7326339,13.2504237 22.4959241,12.7188932 L22.0015037,11.6086749 L23.1340552,12.0495413 C24.1403819,12.4412724 24.9194672,12.6335936 25.6972548,12.6657113 C25.7907584,12.6701005 25.8831345,12.6730609 25.9744213,12.6745657 Z" id="路径" fill="url(#linearGradient-3)"></path>
                    <path d="M28.9324229,4.50142548 L28.9379227,4.50132784 C30.023187,4.48803251 31.0577364,4.62681708 32.0290965,4.92707407 C32.9747197,5.21205556 33.1909957,5.86384454 32.5793752,6.65093852 C30.2236529,9.57752251 27.5868195,11.2462462 24.2968555,11.5920622 C24.2972409,11.5920324 24.281291,11.5952771 24.2366179,11.6060517 C24.2352803,11.6063743 24.2352803,11.6063743 24.2339271,11.6067006 C24.0852946,11.642539 24.0141719,11.6545368 23.8965331,11.6450182 C23.6492132,11.6250067 23.437097,11.4750571 23.3496217,11.2289349 C23.1719684,10.7445326 23.4169921,10.4823321 23.8185032,10.3163167 C23.8353925,10.3093624 23.8353925,10.3093624 23.849716,10.3034765 C23.8760041,10.2926368 23.8858448,10.2880274 23.8801163,10.2916909 C25.5687673,9.2173315 26.5496942,8.20355282 27.0440367,6.82307813 C27.1925712,6.39533611 27.1635257,6.19639489 26.9164122,5.99896127 C26.3172391,5.50173344 26.4897816,4.84555596 27.2256209,4.64164173 C27.6348342,4.52952882 27.9447233,4.50714338 28.6107003,4.5046893 C28.7731888,4.50409054 28.844676,4.50347541 28.9324229,4.50142548 Z" id="路径" fill="url(#linearGradient-4)"></path>
                    <path d="M28.3074414,2.23640223 L28.3031621,2.27182916 C28.160635,3.17862035 27.8334433,4.13963198 27.3348345,5.21295207 C26.4715769,7.06045873 25.3189612,8.73716356 23.9390471,10.1668676 C23.8706218,10.2585177 23.8160535,10.306026 23.7216487,10.3765934 C23.7202945,10.3777064 23.7204235,10.3775848 23.7044426,10.3934423 C23.6888637,10.409576 23.6888637,10.409576 23.6675358,10.4321442 C23.3653617,10.7513086 23.0730472,10.889496 22.6814285,10.6187375 C22.2983335,10.3713383 22.3106919,10.03614 22.4807999,9.69142511 C22.4913419,9.67026934 22.4913419,9.67026934 22.5005531,9.65217703 C22.5213817,9.61129988 22.5274294,9.5984512 22.5300352,9.59088955 C23.0528705,8.11072093 23.2801454,7.2186563 23.3197091,6.22590237 C23.3557427,5.5260732 23.315634,4.85838134 23.1928151,4.20775901 C23.0833202,3.60278909 23.2692312,3.14572026 23.7786077,2.8167714 C24.8196176,2.14085313 25.9091706,1.62040176 27.0815788,1.24047972 C27.8400489,0.99469547 28.3842942,1.32926094 28.3074414,2.23640223 Z" id="路径" fill="url(#linearGradient-5)"></path>
                    <path d="M-0.146718722,36.5045915 C0.207536905,36.3958528 0.455755474,36.3787749 0.920829389,36.3926502 C1.02646556,36.3958018 1.06951338,36.3967742 1.12979376,36.3968257 C5.53130129,36.4599913 8.36094088,36.3504664 11.2589577,35.9001666 C16.3742526,35.1023255 20.5238413,33.6895619 24.1177444,31.3306831 C27.6283425,29.0209966 30.1746134,26.0908869 31.7287484,22.4596242 C31.7392748,22.43451 31.7466445,22.4157237 31.7671086,22.3622642 C31.7797521,22.3290458 31.7797521,22.3290458 31.7936289,22.2929797 C31.9258955,21.9516222 32.0623605,21.7394758 32.340718,21.5663729 L32.6674576,21.3631824 L32.9475604,21.6269771 C33.1507639,21.8183498 33.2349998,22.0576209 33.2145052,22.3129139 C33.2073267,22.4023337 33.1938411,22.4633055 33.1629628,22.577446 C33.149559,22.6272748 33.1467998,22.6381404 33.1444935,22.6496835 C32.434462,26.3248455 30.518477,29.4332973 27.4790545,32.0883342 C23.3046703,35.731233 18.1798767,37.6698396 11.9197981,38.2648941 C8.21060354,38.6142179 4.36321713,38.3741782 0.133357022,37.6076235 C0.0514844118,37.587149 0.0514844118,37.587149 -0.0161225193,37.5579637 C-0.0774513954,37.5290344 -0.21231094,37.436387 -0.240266797,37.4210688 L-1.27871507,36.8520577 L-0.146718722,36.5045915 Z" id="路径" fill="url(#linearGradient-6)"></path>
                    <path d="M22.4060515,13.1349469 C23.0070914,13.3937108 23.4607034,13.7884418 24.0495116,14.4669234 C25.8408485,16.5217708 26.7339965,19.0238877 26.8689066,22.0190614 C26.9751254,24.5532687 26.5283916,26.8382152 25.4566966,28.9057046 C25.0049858,29.7582462 24.480147,30.4815852 23.8318865,31.106512 C23.8307364,31.1075229 23.8297046,31.1085708 23.7975284,31.1420161 C23.5215869,31.4290407 23.1955588,31.5502701 22.8148905,31.2265009 C22.5785276,31.0154418 22.5478866,30.7332835 22.6459302,30.4738178 C22.6678967,30.415685 22.6913648,30.3685232 22.7262262,30.3056024 C22.7380118,30.2844482 22.7380118,30.2844482 22.7394875,30.2824133 C23.6926167,28.4212468 24.1,26.3006275 24.1,23.743871 C24.1,19.6998767 23.4860112,16.7816691 21.8645814,14.2742185 C21.8558664,14.2640699 21.8558664,14.2640699 21.8429189,14.2489624 C21.6052225,13.9698596 21.5398987,13.6372301 21.8144922,13.2861527 L22.0519839,12.9825112 L22.4060515,13.1349469 Z" id="路径" fill="url(#linearGradient-7)"></path>
                    <path d="M37.3468303,26.7445049 C35.2365419,26.7416816 34.4383467,26.2067914 33.6750626,24.2897275 C33.3555637,23.4516736 33.2142413,22.9674636 33.1684039,22.3915155 C33.1668792,22.3756584 33.1668792,22.3756584 33.1644593,22.3527942 C33.1603591,22.3139053 33.1603591,22.3139053 33.1563954,22.2622688 C33.13621,21.9436232 33.2361477,21.665712 33.5897653,21.5025059 C33.6253956,21.4881887 33.6598234,21.4763413 33.6931275,21.4668467 C33.4511202,21.193802 33.3736855,20.9065841 33.6317862,20.539584 C33.8817046,20.2048389 34.228919,20.1934213 34.5595701,20.3488882 C34.6008602,20.3683022 34.6320971,20.3848635 34.6879377,20.4158921 C34.7586529,20.4553576 34.7683318,20.460562 34.7628362,20.4585392 C36.8845771,21.2840037 38.900588,22.3872434 40.8041247,23.7549267 C41.731914,24.4231697 41.7146268,25.1120268 40.7775281,25.7569656 C39.7488355,26.4894931 38.5606568,26.82373 37.3468303,26.7445049 Z" id="路径" fill="url(#linearGradient-8)"></path>
                    <path d="M34.6270808,16.4017051 C35.0183868,15.9998586 35.4792522,15.638011 36.0131302,15.302816 C36.5036031,14.9969954 37.0060764,14.9371078 37.5560953,15.1381181 C38.3382078,15.4403034 38.934071,15.7645354 39.4340477,16.1954219 C39.4576536,16.2142293 39.4576536,16.2142293 39.4888586,16.2392014 C39.789843,16.4823894 39.9461235,16.7398201 39.8074218,17.156198 C39.6669901,17.5229865 39.4374061,17.608542 39.060722,17.6319786 C39.057661,17.632169 39.057661,17.632169 39.0546874,17.6323545 C39.0324744,17.6337644 39.0324744,17.6337644 39.012927,17.635288 C37.1723894,17.7775139 35.6278807,18.4449115 34.3532338,19.6804254 C34.1055285,19.9168193 33.9223034,20.0331405 33.6434577,19.9988403 C33.2047027,19.94487 33.0824585,19.6128576 33.0929799,19.1783992 C33.0931151,19.1965283 33.0887782,19.1947509 33.021821,19.1341765 C32.1690054,18.3454619 31.8807072,17.3228747 32.0618128,16.0798005 C32.2033238,15.1636787 32.7531828,14.6198744 33.6717241,14.4717231 C33.7324838,14.4631145 33.7324838,14.4631145 33.7949469,14.4532609 C33.8701513,14.441143 33.9488045,14.4271762 34.0504047,14.4081876 C34.2423849,14.3717221 34.3383738,14.3537544 34.4257689,14.3391221 L34.5396642,14.3332407 C34.5611671,14.3345907 34.5772417,14.3350112 34.627554,14.3357374 C35.0080927,14.3409597 35.2297226,14.4100273 35.3888759,14.7564437 C35.5587845,15.122195 35.4447009,15.3889936 35.1928687,15.657716 C35.1569801,15.695616 35.1569801,15.695616 35.1386642,15.7156291 C34.9352058,15.945043 34.7648892,16.1722599 34.6270808,16.4017051 Z" id="路径" fill="url(#linearGradient-9)"></path>
                    <path d="M38.6106674,18.7695489 C38.7496295,18.6806058 38.885628,18.5806243 39.0195244,18.4695106 C39.1756584,18.3388052 39.3205904,18.1903393 39.5531727,17.9311093 C39.6629125,17.8083187 39.7225143,17.741715 39.7734302,17.6857145 C40.2415826,17.1631714 40.9434875,17.1972895 41.1618306,17.9375703 C41.4450731,18.8860206 41.4718527,19.6998 41.1594693,20.4843223 C41.0090499,20.8620868 40.7303854,21.1270264 40.3626429,21.2560754 C38.346621,22.0350068 36.348244,21.8652186 34.4196079,20.7829154 C33.7812817,20.4195465 33.7369516,19.8332035 34.1797766,19.2994766 C35.0333069,18.2385945 36.562253,17.7961125 37.8422966,18.2491492 C37.8582161,18.2549919 37.8582161,18.2549919 37.8759481,18.2613413 C37.9174351,18.2760081 37.9174351,18.2760081 37.9658125,18.2932597 C38.2784788,18.4061208 38.506317,18.5450381 38.6106674,18.7695489 Z" id="路径" fill="url(#linearGradient-10)"></path>
                    <path d="M30.0872679,19.3938625 C29.0850424,19.4394691 28.2201393,19.2608984 27.4328344,18.7930419 C26.7642041,18.3979352 26.6414284,17.7617809 27.1049603,17.1544286 C27.7693945,16.2733731 28.6577761,15.6749968 29.7456912,15.3568232 C30.2317443,15.2173172 30.6976639,15.3343287 31.1089584,15.6536232 C32.3049522,16.5994468 32.9136636,17.9093034 33.0417151,19.5678393 C33.0913671,20.1165037 32.7604389,20.5403626 32.1985887,20.5660142 C31.5090257,20.5948771 30.8579027,20.4447571 30.2614228,20.1103189 L29.862826,19.886831 L30.0496432,19.4697872 C30.0614813,19.4433602 30.0740324,19.4180564 30.0872679,19.3938625 Z" id="路径" fill="url(#linearGradient-11)"></path>
                </g>
            </g>
        </g>
    </g>
</svg>